<svg xmlns="http://www.w3.org/2000/svg" width="29.66" height="30.911" viewBox="0 0 29.66 30.911">
  <g id="discount" transform="translate(-10.359 0.002)">
    <g id="Group_2537" data-name="Group 2537" transform="translate(10.359 -0.002)">
      <g id="Group_2536" data-name="Group 2536" transform="translate(0 0)">
        <path id="Path_10344" data-name="Path 10344" d="M38.589,15.854a.906.906,0,0,1,0-.8l1.153-2.358a2.683,2.683,0,0,0-1.158-3.563L36.265,7.9a.906.906,0,0,1-.471-.648l-.454-2.586a2.684,2.684,0,0,0-3.031-2.2l-2.6.368a.906.906,0,0,1-.761-.247L27.063.76a2.683,2.683,0,0,0-3.747,0L21.429,2.586a.906.906,0,0,1-.761.247l-2.6-.368a2.683,2.683,0,0,0-3.031,2.2l-.454,2.586a.906.906,0,0,1-.471.648l-2.319,1.23A2.683,2.683,0,0,0,10.636,12.7l1.153,2.358a.906.906,0,0,1,0,.8l-1.153,2.358a2.683,2.683,0,0,0,1.158,3.563l2.319,1.23a.906.906,0,0,1,.471.648l.454,2.586a2.682,2.682,0,0,0,2.645,2.23,2.757,2.757,0,0,0,.386-.027l2.6-.368a.906.906,0,0,1,.761.247l1.887,1.825a2.683,2.683,0,0,0,3.747,0l1.887-1.825a.907.907,0,0,1,.761-.247l2.6.368a2.683,2.683,0,0,0,3.031-2.2l.454-2.586a.906.906,0,0,1,.471-.648l2.319-1.23a2.683,2.683,0,0,0,1.158-3.563ZM37.749,20.2l-2.319,1.23a2.677,2.677,0,0,0-1.391,1.915l-.454,2.586a.908.908,0,0,1-1.026.745l-2.6-.368a2.677,2.677,0,0,0-2.251.731l-1.887,1.825a.908.908,0,0,1-1.268,0L22.669,27.04a2.675,2.675,0,0,0-1.867-.758,2.737,2.737,0,0,0-.384.027l-2.6.368a.908.908,0,0,1-1.026-.745l-.454-2.586a2.677,2.677,0,0,0-1.391-1.915L12.629,20.2A.908.908,0,0,1,12.238,19l1.153-2.358a2.677,2.677,0,0,0,0-2.366l-1.153-2.358a.908.908,0,0,1,.392-1.206l2.319-1.23a2.677,2.677,0,0,0,1.391-1.915l.454-2.586a.908.908,0,0,1,1.026-.745l2.6.368a2.677,2.677,0,0,0,2.251-.731l1.887-1.825a.908.908,0,0,1,1.268,0L27.71,3.867A2.677,2.677,0,0,0,29.96,4.6l2.6-.368a.908.908,0,0,1,1.026.745l.454,2.586A2.677,2.677,0,0,0,35.43,9.476l2.319,1.23a.908.908,0,0,1,.392,1.206L36.987,14.27a2.677,2.677,0,0,0,0,2.366L38.14,19A.908.908,0,0,1,37.749,20.2Z" transform="translate(-10.359 0.002)" fill="#7c7d7e"/>
      </g>
    </g>
    <g id="Group_2539" data-name="Group 2539" transform="translate(18.415 8.679)">
      <g id="Group_2538" data-name="Group 2538" transform="translate(0)">
        <path id="Path_10345" data-name="Path 10345" d="M157.079,144.053a.891.891,0,0,0-1.261,0l-11.766,11.766a.891.891,0,1,0,1.261,1.261l11.766-11.766A.891.891,0,0,0,157.079,144.053Z" transform="translate(-143.792 -143.792)" fill="#7c7d7e"/>
      </g>
    </g>
    <g id="Group_2541" data-name="Group 2541" transform="translate(18.355 7.431)">
      <g id="Group_2540" data-name="Group 2540">
        <path id="Path_10346" data-name="Path 10346" d="M146.071,123.116a3.269,3.269,0,1,0,3.269,3.269A3.272,3.272,0,0,0,146.071,123.116Zm0,4.754a1.486,1.486,0,1,1,1.486-1.486A1.487,1.487,0,0,1,146.071,127.87Z" transform="translate(-142.802 -123.116)" fill="#7c7d7e"/>
      </g>
    </g>
    <g id="Group_2543" data-name="Group 2543" transform="translate(25.486 16.939)">
      <g id="Group_2542" data-name="Group 2542">
        <path id="Path_10347" data-name="Path 10347" d="M264.191,280.61a3.269,3.269,0,1,0,3.269,3.269A3.272,3.272,0,0,0,264.191,280.61Zm0,4.754a1.486,1.486,0,1,1,1.486-1.486A1.487,1.487,0,0,1,264.191,285.364Z" transform="translate(-260.922 -280.61)" fill="#7c7d7e"/>
      </g>
    </g>
  </g>
</svg>
