<svg xmlns="http://www.w3.org/2000/svg" width="29.66" height="32.174" viewBox="0 0 29.66 32.174">
  <path id="order" d="M17.751,2.6V13.5h5.467V2.6a2.734,2.734,0,0,0-5.467,0ZM4.306,7.358A.943.943,0,1,1,5.639,6.026l.516.517L7.824,4.873A2.917,2.917,0,1,0,8.875,6.488L6.822,8.542a.943.943,0,0,1-1.333,0ZM9.164,3.534,10.347,2.35A.942.942,0,0,1,11.68,3.683L10.334,5.029a4.8,4.8,0,1,1-1.17-1.495ZM.156,23.242a.943.943,0,1,0,.943.943A.943.943,0,0,0,.156,23.242Zm3.77,1.885a.943.943,0,0,1,0-1.885h9.112a.943.943,0,0,1,0,1.885ZM.156,19.472a.943.943,0,1,0,.943.943A.942.942,0,0,0,.156,19.472Zm3.77,1.885a.943.943,0,1,1,0-1.885h9.112a.943.943,0,1,1,0,1.885Zm13.825-5.97V29.212a.942.942,0,0,1-.943.943H-3.614a.942.942,0,0,1-.943-.943V2.505A4.532,4.532,0,0,1-.033-2.019H20.484A4.63,4.63,0,0,1,25.1,2.6V14.445a.943.943,0,0,1-.943.943ZM16.766-.134a4.592,4.592,0,0,0-.9,2.734v25.67H-2.672V2.505A2.646,2.646,0,0,1-.033-.134ZM.156,15.7a.943.943,0,1,0,.943.943A.943.943,0,0,0,.156,15.7Zm3.77,1.885h9.112a.943.943,0,0,0,0-1.885H3.926a.943.943,0,0,0,0,1.885Zm0,0" transform="translate(4.557 2.019)" fill="#7c7d7e" fill-rule="evenodd"/>
</svg>
