<svg xmlns="http://www.w3.org/2000/svg" width="29.563" height="28.885" viewBox="0 0 29.563 28.885">
  <g id="store" transform="translate(0 -5.691)">
    <path id="Path_10352" data-name="Path 10352" d="M29.532,16.056h0a.263.263,0,0,0-.062-.187v-.031L26.451,10.08a.91.91,0,0,0-.84-.5H20.63V6.625a.917.917,0,0,0-.934-.934H9.86a.917.917,0,0,0-.934.934V9.551H4.538a.887.887,0,0,0-.778.436L.149,15.745a.99.99,0,0,0-.125.716v1.307a3.2,3.2,0,0,0,2.023,2.988V33.643a.917.917,0,0,0,.934.934H26.575a.917.917,0,0,0,.934-.934V20.787a3.224,3.224,0,0,0,2.054-3.019V16.243A.394.394,0,0,0,29.532,16.056Zm-18.738-8.5h7.968v4.793H10.794Zm-5.727,3.86h3.86v1.868a.917.917,0,0,0,.934.934H19.7a.917.917,0,0,0,.934-.934V11.418h4.42L27.1,15.309H24.023l-6.163-.031h0a.53.53,0,0,0-.218.031l-5.914-.031h0a.53.53,0,0,0-.218.031l-5.945-.031a.53.53,0,0,0-.218.031H2.608Zm1.4,6.786a1.916,1.916,0,0,0,.031-.436v-.591h4.264v1.089a2.148,2.148,0,1,1-4.3,0V18.2Zm6.163-1.027H16.9v1.37a2.141,2.141,0,0,1-4.264-.28Zm6.163,1.089V17.177h4.264v1.089a2.141,2.141,0,0,1-4.264.28Q18.794,18.406,18.794,18.266Zm-16.9-1.089H4.6v.872a1.368,1.368,0,0,1-2.708-.28S1.892,17.177,1.892,17.177ZM16.708,32.709h-3.86V26.017h3.86Zm1.868,0V25.083a.917.917,0,0,0-.934-.934H11.915a.917.917,0,0,0-.934.934v7.626H3.915V20.943a3.2,3.2,0,0,0,1.276-.591,4.016,4.016,0,0,0,6.505.5,4.034,4.034,0,0,0,3.081,1.432A4.083,4.083,0,0,0,17.86,20.85,4.028,4.028,0,0,0,24.4,20.32a3.2,3.2,0,0,0,1.276.591V32.678l-7.1.031ZM27.7,17.768a1.37,1.37,0,1,1-2.739,0v-.591H27.7Z" transform="translate(0)" fill="#7c7d7e"/>
    <path id="Path_10353" data-name="Path 10353" d="M85.748,315.5H82.324a.917.917,0,0,0-.934.934v3.424a.917.917,0,0,0,.934.934h3.424a.917.917,0,0,0,.934-.934v-3.424A.917.917,0,0,0,85.748,315.5Zm-.934,3.424H83.258v-1.556h1.556Z" transform="translate(-76.541 -291.354)" fill="#7c7d7e"/>
    <path id="Path_10354" data-name="Path 10354" d="M330.254,315.5H326.83a.917.917,0,0,0-.934.934v3.424a.917.917,0,0,0,.934.934h3.424a.917.917,0,0,0,.934-.934v-3.424A.917.917,0,0,0,330.254,315.5Zm-.934,3.424h-1.556v-1.556h1.556Z" transform="translate(-306.48 -291.354)" fill="#7c7d7e"/>
    <path id="Path_10355" data-name="Path 10355" d="M211.683,58.98h-2.926a.934.934,0,1,0,0,1.868h2.926a.934.934,0,1,0,0-1.868Z" transform="translate(-195.441 -50.114)" fill="#7c7d7e"/>
  </g>
</svg>
